# xmcd CD database file
#
# Track frame offsets:
#	150
#	23448
#	48030
#	69198
#	90015
#	114508
#
# Disc length: 1850 seconds
#
# Revision: 1
# Processed by: cddbd v1.5.2PL0 Copyright (c) Steve Scherf et al.
# Submitted via: CDex 1.70beta2
#
DISCID=30073806
DTITLE=Bill Evans/Jim Hall - Undercurrent
DYEAR=1995
DGENRE=Jazz
TTITLE0=My Funny Valentine
TTITLE1=I Hear A Rhapsody
TTITLE2=Dream Gypsy
TTITLE3=Romain
TTITLE4=Skating In Central Park
TTITLE5=Darn That Dream
EXTD=YEAR: 1995
EXTT0=
EXTT1=
EXTT2=
EXTT3=
EXTT4=
EXTT5=
PLAYORDER=
